<?xml version="1.0" encoding="UTF-8"?>
<svg version="1.1" xmlns="http://www.w3.org/2000/svg" width="228" height="256">
<path d="M0 0 C4.77234221 0.57729946 7.12530869 2.8483444 10.640625 5.97265625 C11.57648438 6.74319336 11.57648438 6.74319336 12.53125 7.52929688 C16.65529621 11.1067292 18.45392345 13.86488306 19.390625 19.41015625 C19.47738874 21.38785917 19.52093936 23.36805817 19.515625 25.34765625 C19.84859607 29.98054687 20.50473525 32.20493651 23.890625 35.41015625 C24.60992187 36.03148437 25.32921875 36.6528125 26.0703125 37.29296875 C38.16095236 48.32516876 48.22443296 66.3021849 49.58349609 82.7434082 C50.3784551 106.47413897 44.27888161 123.98778647 28.7421875 142.359375 C27.03876252 144.94405163 26.57275457 147.26013239 25.953125 150.28515625 C24.81263145 155.20128371 23.62759589 158.54667486 20.390625 162.41015625 C17.24151021 163.98471364 14.87053684 163.75814743 11.390625 163.41015625 C4.55283994 159.30748521 2.03091845 152.67379574 -0.75 145.4453125 C-4.25642554 136.36367034 -10.42270589 124.97252451 -19.609375 120.41015625 C-23.28472955 120.75961619 -26.39533413 122.10320473 -29.796875 123.47265625 C-37.89984436 126.26469064 -46.15003044 125.95333522 -54.609375 125.41015625 C-55.269375 125.08015625 -55.929375 124.75015625 -56.609375 124.41015625 C-56.90625 122.12890625 -56.90625 122.12890625 -56.609375 119.41015625 C-54.5625 117.56640625 -54.5625 117.56640625 -51.859375 115.91015625 C-47.94229904 113.48202729 -45.34194709 111.13871256 -42.609375 107.41015625 C-44.64947255 106.75938329 -46.69153169 106.11475801 -48.734375 105.47265625 C-49.87132812 105.11300781 -51.00828125 104.75335938 -52.1796875 104.3828125 C-68.24160272 99.82766798 -85.01009855 101.82366174 -99.6640625 109.62890625 C-118.24703302 120.86741362 -129.03409603 140.10277448 -134.703125 160.60546875 C-138.41018148 176.1687145 -136.75317146 193.15566335 -128.61083984 207.12304688 C-116.31779007 226.86726922 -97.940073 237.94626206 -75.609375 243.41015625 C-75.8259375 242.41048828 -75.8259375 242.41048828 -76.046875 241.390625 C-79.3331752 225.07323167 -79.3331752 225.07323167 -76.109375 218.22265625 C-75.614375 217.62453125 -75.119375 217.02640625 -74.609375 216.41015625 C-73.619375 216.74015625 -72.629375 217.07015625 -71.609375 217.41015625 C-71.3 218.95703125 -71.3 218.95703125 -70.984375 220.53515625 C-70.09609115 224.42139811 -68.2055846 225.68550837 -64.984375 227.91015625 C-62.546875 229.640625 -62.546875 229.640625 -60.609375 231.41015625 C-60.00252543 235.1119386 -59.93958491 237.07057607 -61.609375 240.41015625 C-60.73925781 240.53970703 -60.73925781 240.53970703 -59.8515625 240.671875 C-52.79808511 241.94056978 -49.04987021 244.0748128 -44.734375 249.97265625 C-43.609375 252.41015625 -43.609375 252.41015625 -43.609375 256.41015625 C-79.6464536 257.63796321 -109.10563025 250.20409953 -136.140625 225.16796875 C-145.33009677 216.44115726 -152.75238894 207.04609144 -159.609375 196.41015625 C-160.60710937 194.88841797 -160.60710937 194.88841797 -161.625 193.3359375 C-165.23688379 187.50323328 -168.08033713 181.38389073 -170.796875 175.09765625 C-171.11817383 174.36369629 -171.43947266 173.62973633 -171.77050781 172.87353516 C-177.3862603 159.40908619 -179.31165241 147.10398021 -179.109375 132.66015625 C-179.10317139 131.86923584 -179.09696777 131.07831543 -179.09057617 130.26342773 C-178.98062609 118.29820018 -178.47059866 106.83669938 -174.609375 95.41015625 C-174.33561035 94.59740234 -174.0618457 93.78464844 -173.77978516 92.94726562 C-168.25996282 77.11479962 -160.60921783 63.12203688 -149.609375 50.41015625 C-148.94679687 49.60320313 -148.28421875 48.79625 -147.6015625 47.96484375 C-128.09569388 25.00406113 -98.31288533 10.01740944 -68.609375 6.41015625 C-47.03205036 4.98883892 -26.48454836 6.5606265 -6.609375 15.41015625 C-6.30193359 13.91162109 -6.30193359 13.91162109 -5.98828125 12.3828125 C-5.58416016 10.44728516 -5.58416016 10.44728516 -5.171875 8.47265625 C-4.90503906 7.18488281 -4.63820312 5.89710937 -4.36328125 4.5703125 C-3.40047444 0.53450571 -3.40047444 0.53450571 0 0 Z " fill="#709AD1" transform="translate(178.609375,-0.41015625)"/>
<path d="M0 0 C2.4660336 0.94047327 4.81408135 1.89625534 7.12109375 3.18359375 C14.51821949 7.18777143 21.95884205 8.0726994 30.20678711 8.92358398 C39.5216919 9.93822428 44.91918705 12.96793116 51 20 C53.0503954 22.68314811 55.07470452 25.38314233 57.09008789 28.0925293 C59.83862525 31.70793302 62.72009948 34.72071202 66.1875 37.6875 C78.49667674 48.27956587 85.99614165 65.02951274 87.24609375 81.1796875 C87.24933867 83.47060214 87.19329138 85.71808784 87 88 C84.65740698 85.65740698 83.80233219 83.51740679 82.4375 80.5 C78.8216761 73.11732269 73.31878437 65.16413594 66 61 C62.31912876 61.27858446 59.21214546 62.69381157 55.8125 64.0625 C47.70953064 66.85453439 39.45934456 66.54317897 31 66 C30.34 65.67 29.68 65.34 29 65 C28.703125 62.71875 28.703125 62.71875 29 60 C31.046875 58.15625 31.046875 58.15625 33.75 56.5 C37.66707596 54.07187104 40.26742791 51.72855631 43 48 C40.95990245 47.34922704 38.91784331 46.70460176 36.875 46.0625 C35.73804688 45.70285156 34.60109375 45.34320313 33.4296875 44.97265625 C17.36777228 40.41751173 0.59927645 42.41350549 -14.0546875 50.21875 C-32.63765802 61.45725737 -43.42472103 80.69261823 -49.09375 101.1953125 C-52.31423764 114.71580802 -51.19488843 128.13646675 -46 141 C-46.33 141.99 -46.66 142.98 -47 144 C-59.98809896 124.89985446 -64.87247474 102.39457065 -61.65576172 79.5559082 C-60.62253496 74.34574802 -58.80002738 69.77210916 -56.375 65.0625 C-56.02308594 64.3715625 -55.67117187 63.680625 -55.30859375 62.96875 C-52.19782065 57.0461037 -48.52099352 51.9409277 -44 47 C-43.40960938 46.31808594 -42.81921875 45.63617188 -42.2109375 44.93359375 C-28.47131867 29.99541242 -9.26484169 24.00859619 10 20 C9.52949219 19.35933594 9.05898437 18.71867187 8.57421875 18.05859375 C0 6.14699793 0 6.14699793 0 0 Z " fill="#5D55C3" transform="translate(93,59)"/>
<path d="M0 0 C4.09256966 -0.55864831 6.35661626 -0.06340225 9.578125 2.37890625 C10.81541879 3.42452525 12.03916881 4.48634813 13.25 5.5625 C13.87390625 6.07619141 14.4978125 6.58988281 15.140625 7.11914062 C19.26467121 10.69657295 21.06329845 13.45472681 22 19 C22.1953125 22.08984375 22.1953125 22.08984375 22.125 24.9375 C22.10695312 25.89527344 22.08890625 26.85304688 22.0703125 27.83984375 C22.04710937 28.55269531 22.02390625 29.26554687 22 30 C18.40060458 29.35695256 15.96140944 27.82992412 12.9375 25.8125 C7.44499242 22.22978616 1.79645128 19.06079536 -4 16 C-3.71515154 14.26969709 -3.42180062 12.54079286 -3.125 10.8125 C-2.96257812 9.84957031 -2.80015625 8.88664063 -2.6328125 7.89453125 C-2.01960483 5.08967396 -1.14333657 2.62775253 0 0 Z " fill="#5D54C3" transform="translate(176,0)"/>
</svg>
