<svg width="21" height="20" viewBox="0 0 21 20" fill="none" xmlns="http://www.w3.org/2000/svg">
<path d="M6.75 5.625C6.75 3.20875 8.70875 1.25 11.125 1.25C13.5412 1.25 15.5 3.20875 15.5 5.625C15.5 8.04125 13.5412 10 11.125 10C8.70875 10 6.75 8.04125 6.75 5.625Z" fill="#6A84C5"/>
<path d="M6.75 5.625C6.75 3.20875 8.70875 1.25 11.125 1.25C13.5412 1.25 15.5 3.20875 15.5 5.625C15.5 8.04125 13.5412 10 11.125 10C8.70875 10 6.75 8.04125 6.75 5.625Z" fill="black" fill-opacity="0.2"/>
<path d="M6.04672 8.04707C4.93068 9.26931 4.25 10.8959 4.25 12.6814V20H18V12.6814C18 10.8959 17.3193 9.26932 16.2033 8.04707C15.2982 9.94135 13.3644 11.25 11.125 11.25C8.88558 11.25 6.95181 9.94135 6.04672 8.04707Z" fill="#6A84C5"/>
<path d="M6.04672 8.04707C4.93068 9.26931 4.25 10.8959 4.25 12.6814V20H18V12.6814C18 10.8959 17.3193 9.26932 16.2033 8.04707C15.2982 9.94135 13.3644 11.25 11.125 11.25C8.88558 11.25 6.95181 9.94135 6.04672 8.04707Z" fill="black" fill-opacity="0.2"/>
</svg>
