<svg width="16" height="16" viewBox="0 0 16 16" fill="none" xmlns="http://www.w3.org/2000/svg">
<path d="M6 6V4.13346C6 3.38673 6 3.01308 6.14532 2.72786C6.27316 2.47698 6.47698 2.27316 6.72786 2.14532C7.01308 2 7.38673 2 8.13346 2H11.8668C12.6135 2 12.9867 2 13.2719 2.14532C13.5228 2.27316 13.727 2.47698 13.8548 2.72786C14.0001 3.01308 14.0001 3.38645 14.0001 4.13319V7.86654C14.0001 8.61327 14.0001 8.98664 13.8548 9.27186C13.727 9.52274 13.5226 9.72699 13.2717 9.85482C12.9868 10 12.614 10 11.8687 10H10M6 6H4.13346C3.38673 6 3.01308 6 2.72786 6.14532C2.47698 6.27316 2.27316 6.47698 2.14532 6.72786C2 7.01308 2 7.38673 2 8.13346V11.8668C2 12.6135 2 12.9867 2.14532 13.2719C2.27316 13.5228 2.47698 13.727 2.72786 13.8548C3.0128 14 3.386 14 4.13127 14H7.86903C8.61431 14 8.98698 14 9.27192 13.8548C9.5228 13.727 9.72699 13.5226 9.85482 13.2717C10 12.9868 10 12.614 10 11.8687V10M6 6H7.8668C8.61353 6 8.98671 6 9.27192 6.14532C9.5228 6.27316 9.72699 6.47698 9.85482 6.72786C10 7.0128 10 7.386 10 8.1313L10 10" stroke="#6A84C5" stroke-width="2" stroke-linecap="round" stroke-linejoin="round"/>

</svg>
