<svg xmlns="http://www.w3.org/2000/svg" width="32" height="32" viewBox="0 0 32 32" fill="none">
  <g clip-path="url(#clip0_686_1678)">
    <path fill-rule="evenodd" clip-rule="evenodd" d="M16.0132 0C7.15833 0 0 7.33333 0 16.4057C0 23.6577 4.58659 29.7963 10.9494 31.969C11.7449 32.1323 12.0363 31.616 12.0363 31.1817C12.0363 30.8013 12.0101 29.4977 12.0101 28.1393C7.5556 29.1173 6.62799 26.1837 6.62799 26.1837C5.91212 24.2823 4.85143 23.7937 4.85143 23.7937C3.39348 22.7887 4.95763 22.7887 4.95763 22.7887C6.57489 22.8973 7.4235 24.4727 7.4235 24.4727C8.85491 26.9713 11.1615 26.2653 12.0894 25.8307C12.2218 24.7713 12.6463 24.038 13.097 23.6307C9.54422 23.2503 5.80625 21.838 5.80625 15.5363C5.80625 13.7437 6.44214 12.277 7.44973 11.1363C7.29075 10.729 6.73386 9.04467 7.60903 6.79033C7.60903 6.79033 8.96111 6.35567 12.0098 8.47433C13.315 8.11522 14.6611 7.93254 16.0132 7.931C17.3653 7.931 18.7436 8.12133 20.0164 8.47433C23.0654 6.35567 24.4175 6.79033 24.4175 6.79033C25.2926 9.04467 24.7354 10.729 24.5764 11.1363C25.6106 12.277 26.2202 13.7437 26.2202 15.5363C26.2202 21.838 22.4823 23.223 18.9029 23.6307C19.4864 24.1467 19.9898 25.1243 19.9898 26.6727C19.9898 28.8727 19.9636 30.6383 19.9636 31.1813C19.9636 31.616 20.2553 32.1323 21.0505 31.9693C27.4133 29.796 31.9999 23.6577 31.9999 16.4057C32.0261 7.33333 24.8416 0 16.0132 0Z" fill="#24292F"/>
  </g>
  <defs>
    <clipPath id="clip0_686_1678">
      <rect width="32" height="32" fill="white"/>
    </clipPath>
  </defs>
</svg>