<svg xmlns="http://www.w3.org/2000/svg" width="16" height="16" viewBox="0 0 16 16" fill="none">
  <path d="M0 2C0 0.89543 0.895431 0 2 0H6C6.55228 0 7 0.447715 7 1V6C7 6.55228 6.55228 7 6 7H1C0.447715 7 0 6.55228 0 6V2Z" fill="white"/>
  <path d="M9 1C9 0.447715 9.44772 0 10 0H14C15.1046 0 16 0.895431 16 2V6C16 6.55228 15.5523 7 15 7H10C9.44772 7 9 6.55228 9 6V1Z" fill="white"/>
  <path d="M0 10C0 9.44772 0.447715 9 1 9H6C6.55228 9 7 9.44772 7 10V15C7 15.5523 6.55228 16 6 16H2C0.89543 16 0 15.1046 0 14V10Z" fill="white"/>
  <path d="M9 10C9 9.44772 9.44772 9 10 9H15C15.5523 9 16 9.44772 16 10V14C16 15.1046 15.1046 16 14 16H10C9.44772 16 9 15.5523 9 15V10Z" fill="white"/>
</svg>