<svg width="16" height="16" viewBox="0 0 16 16" fill="none" xmlns="http://www.w3.org/2000/svg">
<path d="M11.3891 1.98958C11.7796 1.59905 12.4128 1.59905 12.8033 1.98958L13.5104 2.69668C13.9009 3.08721 13.9009 3.72037 13.5104 4.1109L6.43934 11.182L4.31802 9.06065L11.3891 1.98958Z" fill="#6A84C5"/>
<path d="M11.3891 1.98958C11.7796 1.59905 12.4128 1.59905 12.8033 1.98958L13.5104 2.69668C13.9009 3.08721 13.9009 3.72037 13.5104 4.1109L6.43934 11.182L4.31802 9.06065L11.3891 1.98958Z" fill="black" fill-opacity="0.2"/>
<path d="M2.45006 13.381L5.73224 11.8891L3.61092 9.76776L2.11902 13.0499C2.02343 13.2602 2.23977 13.4766 2.45006 13.381Z" fill="#6A84C5"/>
<path d="M2.45006 13.381L5.73224 11.8891L3.61092 9.76776L2.11902 13.0499C2.02343 13.2602 2.23977 13.4766 2.45006 13.381Z" fill="black" fill-opacity="0.2"/>
</svg>
