<svg width="16" height="16" viewBox="0 0 16 16" fill="none" xmlns="http://www.w3.org/2000/svg">
<path fill-rule="evenodd" clip-rule="evenodd" d="M5.06578e-07 1.12681L3.7183 4.84511L4.84511 3.7183L1.12681 0L5.06578e-07 1.12681Z" fill="#6A84C5"/>
<path d="M1.80283 6.76056L6.76056 1.80283V6.76056H1.80283Z" fill="#6A84C5"/>
<path fill-rule="evenodd" clip-rule="evenodd" d="M16 14.8732L12.2817 11.1549L11.1549 12.2817L14.8732 16L16 14.8732Z" fill="#6A84C5"/>
<path d="M14.1972 9.23944L9.23944 14.1972V9.23944H14.1972Z" fill="#6A84C5"/>
<path fill-rule="evenodd" clip-rule="evenodd" d="M16 1.12681L12.2817 4.84511L11.1549 3.7183L14.8732 0L16 1.12681Z" fill="#6A84C5"/>
<path d="M14.1972 6.76056L9.23951 1.80283V6.76056H14.1972Z" fill="#6A84C5"/>
<path fill-rule="evenodd" clip-rule="evenodd" d="M0 14.8732L3.7183 11.1549L4.84511 12.2817L1.12681 16L0 14.8732Z" fill="#6A84C5"/>
<path d="M1.80276 9.23944L6.76049 14.1972V9.23944H1.80276Z" fill="#6A84C5"/>
</svg>