<svg width="25" height="20" viewBox="0 0 25 20" fill="none" xmlns="http://www.w3.org/2000/svg">
<path d="M0.665497 4.06493H21.2632C22.8884 4.06493 24.2058 5.23808 24.2058 6.68523V16.5114C24.2058 17.9585 22.8884 19.1317 21.2632 19.1317H3.60803C1.98291 19.1317 0.665497 17.9585 0.665497 16.5114V4.06493Z" fill="#6A84C5"/>
<path d="M0.665497 4.06493H21.2632C22.8884 4.06493 24.2058 5.23808 24.2058 6.68523V16.5114C24.2058 17.9585 22.8884 19.1317 21.2632 19.1317H3.60803C1.98291 19.1317 0.665497 17.9585 0.665497 16.5114V4.06493Z" fill="black" fill-opacity="0.2"/>
<path d="M0.665497 3.40985C0.665497 1.9627 1.98291 0.789551 3.60803 0.789551H8.02183C9.64695 0.789551 10.9644 1.9627 10.9644 3.40985V4.06493H0.665497V3.40985Z" fill="#6A84C5"/>
<path d="M0.665497 3.40985C0.665497 1.9627 1.98291 0.789551 3.60803 0.789551H8.02183C9.64695 0.789551 10.9644 1.9627 10.9644 3.40985V4.06493H0.665497V3.40985Z" fill="black" fill-opacity="0.2"/>
</svg>
