<svg xmlns="http://www.w3.org/2000/svg" width="67" height="67" viewBox="0 0 67 67" fill="none">
  <path fill-rule="evenodd" clip-rule="evenodd" d="M33.5277 0C14.9878 0 0 15.3541 0 34.3492C0 49.533 9.60317 62.3858 22.9253 66.9348C24.5909 67.2768 25.201 66.1957 25.201 65.2863C25.201 64.49 25.1461 61.7605 25.1461 58.9165C15.8195 60.9642 13.8773 54.8218 13.8773 54.8218C12.3785 50.8409 10.1577 49.8178 10.1577 49.8178C7.1051 47.7136 10.38 47.7136 10.38 47.7136C13.7662 47.9411 15.543 51.2394 15.543 51.2394C18.54 56.471 23.3693 54.9928 25.3122 54.0827C25.5895 51.8648 26.4782 50.3294 27.4219 49.4765C19.9832 48.6802 12.1568 45.7231 12.1568 32.5291C12.1568 28.7757 13.4882 25.7049 15.5979 23.3166C15.265 22.4638 14.099 18.9372 15.9314 14.2172C15.9314 14.2172 18.7623 13.3071 25.1454 17.7431C27.8783 16.9912 30.6966 16.6087 33.5277 16.6055C36.3586 16.6055 39.2445 17.004 41.9093 17.7431C48.2931 13.3071 51.124 14.2172 51.124 14.2172C52.9564 18.9372 51.7897 22.4638 51.4569 23.3166C53.6221 25.7049 54.8986 28.7757 54.8986 32.5291C54.8986 45.7231 47.0722 48.623 39.578 49.4765C40.7996 50.5569 41.8537 52.6039 41.8537 55.8457C41.8537 60.4519 41.7988 64.1487 41.7988 65.2856C41.7988 66.1957 42.4096 67.2768 44.0745 66.9355C57.3967 62.3851 66.9998 49.533 66.9998 34.3492C67.0547 15.3541 52.0121 0 33.5277 0Z" fill="white"/>
</svg>