<svg width="17" height="17" viewBox="0 0 17 17" fill="none" xmlns="http://www.w3.org/2000/svg">
<path fill-rule="evenodd" clip-rule="evenodd" d="M13.4999 0.532593H9.49992V2.53259H13.4999C14.0522 2.53259 14.4999 2.98031 14.4999 3.53259V13.5326C14.4999 14.0849 14.0522 14.5326 13.4999 14.5326H9.49992V16.5326H13.4999C15.1568 16.5326 16.4999 15.1894 16.4999 13.5326V3.53259C16.4999 1.87574 15.1568 0.532593 13.4999 0.532593Z" fill="white"/>
<path fill-rule="evenodd" clip-rule="evenodd" d="M8.29302 8.97825H0.500122V7.97825H8.29302L5.96459 5.64983C5.76933 5.45456 5.76933 5.13798 5.96459 4.94272C6.15985 4.74746 6.47643 4.74746 6.67169 4.94272L9.85368 8.1247C10.0489 8.31996 10.0489 8.63654 9.85368 8.83181L6.67169 12.0138C6.47643 12.209 6.15985 12.209 5.96459 12.0138C5.76933 11.8185 5.76933 11.5019 5.96459 11.3067L8.29302 8.97825Z" fill="white"/>
</svg>
