<svg width="16" height="16" viewBox="0 0 16 16" fill="none" xmlns="http://www.w3.org/2000/svg">
<rect x="6" y="1" width="9" height="2" fill="#6A84C5"/>
<rect x="6" y="1" width="9" height="2" fill="#6A84C5"/>
<rect x="6" y="6" width="9" height="2" fill="#6A84C5"/>
<rect x="6" y="11" width="9" height="2" fill="#6A84C5"/>
<path d="M1.95801 0.437988V4H1.25488V1.24854L0.410156 1.51709V0.962891L1.88232 0.437988H1.95801Z" fill="#6A84C5"/>
<path d="M2.67578 8.45068V9H0.244141V8.53125L1.39404 7.29834C1.5096 7.16976 1.60075 7.05664 1.66748 6.95898C1.73421 6.8597 1.78223 6.771 1.81152 6.69287C1.84245 6.61312 1.85791 6.53743 1.85791 6.46582C1.85791 6.3584 1.84001 6.26644 1.8042 6.18994C1.76839 6.11182 1.71549 6.0516 1.64551 6.00928C1.57715 5.96696 1.49251 5.9458 1.3916 5.9458C1.28418 5.9458 1.19141 5.97184 1.11328 6.02393C1.03678 6.07601 0.97819 6.14844 0.9375 6.24121C0.898438 6.33398 0.878906 6.43896 0.878906 6.55615H0.17334C0.17334 6.34456 0.223796 6.15088 0.324707 5.9751C0.425618 5.79769 0.568034 5.6569 0.751953 5.55273C0.935872 5.44694 1.15397 5.39404 1.40625 5.39404C1.65527 5.39404 1.86523 5.43473 2.03613 5.51611C2.20866 5.59587 2.33887 5.71143 2.42676 5.86279C2.51628 6.01253 2.56104 6.19157 2.56104 6.3999C2.56104 6.51709 2.54232 6.63184 2.50488 6.74414C2.46745 6.85482 2.41374 6.96549 2.34375 7.07617C2.27539 7.18522 2.19238 7.2959 2.09473 7.4082C1.99707 7.52051 1.88883 7.63688 1.77002 7.75732L1.15234 8.45068H2.67578Z" fill="#6A84C5"/>
<path d="M0.964355 11.9175H1.34033C1.46077 11.9175 1.56006 11.8971 1.63818 11.8564C1.71631 11.8141 1.77409 11.7555 1.81152 11.6807C1.85059 11.6042 1.87012 11.5155 1.87012 11.4146C1.87012 11.3234 1.85221 11.2428 1.81641 11.1729C1.78223 11.1012 1.72933 11.0459 1.65771 11.0068C1.5861 10.9661 1.49577 10.9458 1.38672 10.9458C1.30046 10.9458 1.2207 10.9629 1.14746 10.9971C1.07422 11.0312 1.01562 11.0793 0.97168 11.1411C0.927734 11.203 0.905762 11.2778 0.905762 11.3657H0.200195C0.200195 11.1704 0.252279 11.0003 0.356445 10.8555C0.46224 10.7106 0.603841 10.5975 0.78125 10.5161C0.958659 10.4347 1.15397 10.394 1.36719 10.394C1.60807 10.394 1.81885 10.4331 1.99951 10.5112C2.18018 10.5877 2.32096 10.7008 2.42188 10.8506C2.52279 11.0003 2.57324 11.1859 2.57324 11.4072C2.57324 11.5195 2.5472 11.6286 2.49512 11.7344C2.44303 11.8385 2.36816 11.9329 2.27051 12.0176C2.17448 12.1006 2.05729 12.1673 1.91895 12.2178C1.7806 12.2666 1.62516 12.291 1.45264 12.291H0.964355V11.9175ZM0.964355 12.4521V12.0884H1.45264C1.64632 12.0884 1.81641 12.1104 1.96289 12.1543C2.10938 12.1982 2.23226 12.2617 2.33154 12.3447C2.43083 12.4261 2.5057 12.5229 2.55615 12.6353C2.60661 12.7459 2.63184 12.8688 2.63184 13.0039C2.63184 13.1699 2.6001 13.318 2.53662 13.4482C2.47314 13.5768 2.38363 13.6859 2.26807 13.7754C2.15413 13.8649 2.02067 13.9333 1.86768 13.9805C1.71468 14.026 1.54785 14.0488 1.36719 14.0488C1.21745 14.0488 1.07015 14.0285 0.925293 13.9878C0.782064 13.9455 0.651855 13.8828 0.534668 13.7998C0.419108 13.7152 0.326335 13.6094 0.256348 13.4824C0.187988 13.3538 0.153809 13.2017 0.153809 13.0259H0.859375C0.859375 13.117 0.882161 13.1984 0.927734 13.27C0.973307 13.3416 1.03597 13.3978 1.11572 13.4385C1.1971 13.4792 1.28743 13.4995 1.38672 13.4995C1.49902 13.4995 1.59505 13.4792 1.6748 13.4385C1.75618 13.3962 1.81803 13.3376 1.86035 13.2627C1.9043 13.1862 1.92627 13.0975 1.92627 12.9966C1.92627 12.8664 1.90267 12.7622 1.85547 12.6841C1.80827 12.6043 1.74072 12.5457 1.65283 12.5083C1.56494 12.4709 1.46077 12.4521 1.34033 12.4521H0.964355Z" fill="#6A84C5"/>
</svg>
