<svg width="21" height="20" viewBox="0 0 21 20" fill="none" xmlns="http://www.w3.org/2000/svg">
<path fill-rule="evenodd" clip-rule="evenodd" d="M17.5794 7.54023L19.4944 7.92401C20.0788 8.04087 20.5 8.55402 20.5 9.14967V10.8497C20.5 11.4454 20.0788 11.9598 19.4944 12.0754L17.5794 12.4585C17.4831 12.7354 17.3706 13.0042 17.2438 13.2654L18.3288 14.893C18.6594 15.3886 18.5937 16.0486 18.1725 16.4699L16.97 17.6724C16.7281 17.9143 16.4087 18.0387 16.085 18.0387C15.8463 18.0387 15.6044 17.9693 15.3931 17.8287L13.7656 16.7437C13.5056 16.8693 13.2369 16.983 12.96 17.0793L12.5756 18.9944C12.4594 19.5787 11.9456 20 11.35 20H9.65C9.05437 20 8.54125 19.5794 8.42438 18.9944L8.04125 17.0793C7.76438 16.983 7.49562 16.8705 7.235 16.7437L5.6075 17.8287C5.39688 17.9693 5.155 18.0387 4.915 18.0387C4.59187 18.0387 4.2725 17.9143 4.03063 17.6724L2.82813 16.4699C2.40687 16.0493 2.34125 15.3886 2.67188 14.893L3.75562 13.2654C3.63 13.0054 3.51687 12.7366 3.42063 12.4598L1.505 12.0754C0.920628 11.9591 0.5 11.4454 0.5 10.8497V9.14967C0.5 8.55402 0.920628 8.04087 1.505 7.92401L3.42125 7.54086C3.5175 7.26398 3.63 6.99521 3.75625 6.73458L2.67188 5.10703C2.34125 4.61139 2.40687 3.95137 2.82813 3.53012L4.03 2.32757C4.27188 2.08569 4.59125 1.96131 4.91438 1.96131C5.15438 1.96131 5.39562 2.03006 5.6075 2.17132L7.23437 3.25574C7.49437 3.1301 7.76313 3.01697 8.04 2.92072L8.42375 1.00503C8.54063 0.420641 9.05375 0 9.64938 0H11.3494C11.945 0 12.4588 0.420011 12.575 1.00503L12.9588 2.92072C13.2356 3.01697 13.5044 3.12947 13.7656 3.25574L15.3931 2.17132C15.6038 2.03006 15.8456 1.96131 16.085 1.96131C16.4087 1.96131 16.7281 2.08569 16.97 2.32757L18.1725 3.53012C18.5937 3.95076 18.6594 4.61139 18.3288 5.10703L17.2438 6.73458C17.3694 6.9946 17.4831 7.26335 17.5794 7.54023ZM10.5 14.3755C12.9162 14.3755 14.875 12.4166 14.875 10.0003C14.875 7.58399 12.9162 5.62518 10.5 5.62518C8.08375 5.62518 6.125 7.58399 6.125 10.0003C6.125 12.4166 8.08375 14.3755 10.5 14.3755Z" fill="#6A84C5"/>
<path fill-rule="evenodd" clip-rule="evenodd" d="M17.5794 7.54023L19.4944 7.92401C20.0788 8.04087 20.5 8.55402 20.5 9.14967V10.8497C20.5 11.4454 20.0788 11.9598 19.4944 12.0754L17.5794 12.4585C17.4831 12.7354 17.3706 13.0042 17.2438 13.2654L18.3288 14.893C18.6594 15.3886 18.5937 16.0486 18.1725 16.4699L16.97 17.6724C16.7281 17.9143 16.4087 18.0387 16.085 18.0387C15.8463 18.0387 15.6044 17.9693 15.3931 17.8287L13.7656 16.7437C13.5056 16.8693 13.2369 16.983 12.96 17.0793L12.5756 18.9944C12.4594 19.5787 11.9456 20 11.35 20H9.65C9.05437 20 8.54125 19.5794 8.42438 18.9944L8.04125 17.0793C7.76438 16.983 7.49562 16.8705 7.235 16.7437L5.6075 17.8287C5.39688 17.9693 5.155 18.0387 4.915 18.0387C4.59187 18.0387 4.2725 17.9143 4.03063 17.6724L2.82813 16.4699C2.40687 16.0493 2.34125 15.3886 2.67188 14.893L3.75562 13.2654C3.63 13.0054 3.51687 12.7366 3.42063 12.4598L1.505 12.0754C0.920628 11.9591 0.5 11.4454 0.5 10.8497V9.14967C0.5 8.55402 0.920628 8.04087 1.505 7.92401L3.42125 7.54086C3.5175 7.26398 3.63 6.99521 3.75625 6.73458L2.67188 5.10703C2.34125 4.61139 2.40687 3.95137 2.82813 3.53012L4.03 2.32757C4.27188 2.08569 4.59125 1.96131 4.91438 1.96131C5.15438 1.96131 5.39562 2.03006 5.6075 2.17132L7.23437 3.25574C7.49437 3.1301 7.76313 3.01697 8.04 2.92072L8.42375 1.00503C8.54063 0.420641 9.05375 0 9.64938 0H11.3494C11.945 0 12.4588 0.420011 12.575 1.00503L12.9588 2.92072C13.2356 3.01697 13.5044 3.12947 13.7656 3.25574L15.3931 2.17132C15.6038 2.03006 15.8456 1.96131 16.085 1.96131C16.4087 1.96131 16.7281 2.08569 16.97 2.32757L18.1725 3.53012C18.5937 3.95076 18.6594 4.61139 18.3288 5.10703L17.2438 6.73458C17.3694 6.9946 17.4831 7.26335 17.5794 7.54023ZM10.5 14.3755C12.9162 14.3755 14.875 12.4166 14.875 10.0003C14.875 7.58399 12.9162 5.62518 10.5 5.62518C8.08375 5.62518 6.125 7.58399 6.125 10.0003C6.125 12.4166 8.08375 14.3755 10.5 14.3755Z" fill="black" fill-opacity="0.2"/>
</svg>
