<svg xmlns="http://www.w3.org/2000/svg" width="16" height="16" viewBox="0 0 16 16" fill="none">
  <path fill-rule="evenodd" clip-rule="evenodd" d="M11.5397 6.77012L12.4972 6.962C12.7894 7.02044 13 7.27701 13 7.57483V8.42486C13 8.72268 12.7894 8.97988 12.4972 9.03769L11.5397 9.22925C11.4916 9.3677 11.4353 9.50208 11.3719 9.63271L11.9144 10.4465C12.0797 10.6943 12.0469 11.0243 11.8363 11.235L11.235 11.8362C11.1141 11.9572 10.9544 12.0193 10.7925 12.0193C10.6731 12.0193 10.5522 11.9847 10.4466 11.9143L9.63281 11.3718C9.50281 11.4346 9.36844 11.4915 9.23 11.5396L9.03781 12.4972C8.97969 12.7894 8.72281 13 8.425 13H7.575C7.27719 13 7.02062 12.7897 6.96219 12.4972L6.77062 11.5396C6.63219 11.4915 6.49781 11.4353 6.3675 11.3718L5.55375 11.9143C5.44844 11.9847 5.3275 12.0193 5.2075 12.0193C5.04594 12.0193 4.88625 11.9572 4.76531 11.8362L4.16406 11.235C3.95344 11.0246 3.92062 10.6943 4.08594 10.4465L4.62781 9.63271C4.565 9.50271 4.50844 9.36832 4.46031 9.22988L3.5025 9.03769C3.21031 8.97956 3 8.72268 3 8.42486V7.57483C3 7.27701 3.21031 7.02044 3.5025 6.962L4.46062 6.77043C4.50875 6.63199 4.565 6.49761 4.62813 6.36729L4.08594 5.55351C3.92062 5.30569 3.95344 4.97568 4.16406 4.76506L4.765 4.16379C4.88594 4.04285 5.04563 3.98066 5.20719 3.98066C5.32719 3.98066 5.44781 4.01503 5.55375 4.08566L6.36719 4.62787C6.49719 4.56505 6.63156 4.50848 6.77 4.46036L6.96187 3.50252C7.02031 3.21032 7.27688 3 7.57469 3H8.42469C8.7225 3 8.97938 3.21001 9.0375 3.50252L9.22938 4.46036C9.36781 4.50848 9.50219 4.56473 9.63281 4.62787L10.4466 4.08566C10.5519 4.01503 10.6728 3.98066 10.7925 3.98066C10.9544 3.98066 11.1141 4.04285 11.235 4.16379L11.8363 4.76506C12.0469 4.97538 12.0797 5.30569 11.9144 5.55351L11.3719 6.36729C11.4347 6.4973 11.4916 6.63168 11.5397 6.77012ZM8 10.1877C9.20812 10.1877 10.1875 9.20832 10.1875 8.00016C10.1875 6.792 9.20812 5.81259 8 5.81259C6.79188 5.81259 5.8125 6.792 5.8125 8.00016C5.8125 9.20832 6.79188 10.1877 8 10.1877Z" fill="white"/>
</svg>