<svg width="405" height="454" viewBox="0 0 405 454" fill="none" xmlns="http://www.w3.org/2000/svg">
<path d="M347.5 25.0001C349.419 28.8378 350.187 40.6021 350.418 49.2535C350.499 52.2902 347.814 54.625 344.819 54.1186C325.177 50.7978 296.105 43.1609 303 33.0001C308.248 25.2658 311.017 13.9867 312.228 5.05751C312.784 0.957336 317.724 -1.37417 320.972 1.19029C331.868 9.79552 345.614 21.2275 347.5 25.0001Z" fill="#5D54C3"/>
<path d="M247 220C254.334 220 269.332 214.164 280.537 209.179C284.284 207.513 284.357 202.331 280.718 200.442L253.997 186.574C251.725 185.395 248.94 186.125 247.404 188.172C241.819 195.618 232.266 205.887 223.373 208.084C221.627 208.515 219.986 209.485 219.154 211.08L218.315 212.687C216.579 216.016 218.991 220 222.745 220H247Z" fill="#5D54C3"/>
<path d="M351.696 56.2094C381.091 84.6076 447.718 159.671 362.617 255.181C362.048 255.82 361.758 256.692 361.81 257.547C362.534 269.544 356.296 289.365 343.196 288.209C329.596 287.009 320.863 266.376 318.196 256.209C303.901 201.709 162.735 117.808 92.6961 241.209C31.1024 349.732 121.49 425.277 182.094 431.866C184.123 432.087 185.657 430.173 185.169 428.191C178.102 399.486 181.338 388.153 185.701 384.811C187.348 383.549 188.624 385.668 188.31 387.72C186.4 400.181 208.196 407.268 208.196 412.709C208.196 415.818 207.497 420.213 206.778 423.829C206.337 426.051 208.375 428.075 210.637 427.966C224.93 427.278 234.225 439.918 238.317 449.168C239.102 450.943 237.785 452.874 235.849 453.01C89.2918 463.33 20.3884 338.483 4.19614 274.209C-6.80386 227.543 -2.90386 117.009 100.696 48.2094C204.296 -20.5906 314 22.2294 351.696 56.2094Z" fill="url(#paint0_radial_487_1477)"/>
<path d="M238 124.5C249.6 129.7 269.167 159.667 277 168.5C215 171.7 200.167 157.167 201 155C176.2 139 166 113.333 164 102.5C203 128.5 223.5 118 238 124.5Z" fill="#5D54C3"/>
<path fill-rule="evenodd" clip-rule="evenodd" d="M319.715 261.143C319.086 259.342 318.579 257.668 318.196 256.209C303.901 201.709 162.735 117.808 92.6961 241.209C66.1632 287.958 67.8326 328.587 83.1749 360.221C82.8674 360.178 82.5829 359.988 82.4229 359.717C-44.3634 145.001 309.019 44.8538 319.715 261.143Z" fill="#5D54C3"/>
<defs>
<radialGradient id="paint0_radial_487_1477" cx="0" cy="0" r="1" gradientUnits="userSpaceOnUse" gradientTransform="translate(203 101.5) rotate(90.0771) scale(352.113 322.596)">
<stop offset="0.120719" stop-color="#78B9DE"/>
<stop offset="0.751766" stop-color="#6A84C5"/>
<stop offset="1" stop-color="#5D54C4"/>
</radialGradient>
</defs>
</svg>
